<?xml version="1.0" encoding="utf-8"?>
<!-- Generator: Adobe Illustrator 26.1.0, SVG Export Plug-In . SVG Version: 6.00 Build 0)  -->
<svg version="1.1" id="Layer_1" xmlns="http://www.w3.org/2000/svg" xmlns:xlink="http://www.w3.org/1999/xlink" x="0px" y="0px"
	 viewBox="0 0 257.7 71.2" style="enable-background:new 0 0 257.7 71.2;" xml:space="preserve">
<style type="text/css">
	.st0{fill:#FFFFFF;}
</style>
<g>
	<g>
		<path class="st0" d="M69,22.3c-3.2-3.3-8.5-3.4-11.8-0.1c-1.7,1.6-2.5,3.8-2.5,6c0,0.1,0,0.3,0,0.4c0,0.2,0,0.5,0.1,0.7
			c0.1,3.1-1.1,6.2-3.5,8.6c-2,2-4.5,3-7.1,3.3c0,0-0.1,0-0.1,0c0,0-0.1,0-0.1,0l0,0c-1.1,0.1-2.1,0.6-3,1.4c-2,2-2.1,5.2-0.1,7.3
			c2,2,5.2,2.1,7.3,0.1c0.8-0.8,1.3-1.7,1.5-2.7c0,0,0,0,0,0c0,0,0-0.1,0-0.1c0-0.2,0-0.4,0.1-0.6c0.3-2.5,1.5-4.9,3.4-6.8
			c2.5-2.4,5.7-3.5,8.9-3.3c0.2,0,0.4,0.1,0.6,0.1c0.1,0,0.1,0,0.2,0c0,0,0,0,0,0c2.2,0.1,4.5-0.7,6.2-2.4
			C72.2,30.9,72.3,25.6,69,22.3z"/>
		<path class="st0" d="M28.4,16.7C28.4,16.7,28.4,16.7,28.4,16.7c0.1,0,0.1,0,0.2,0c0.2,0,0.4,0,0.6-0.1c3.2-0.1,6.4,1,8.8,3.5
			c1.9,1.9,3,4.4,3.3,6.9c0,0.2,0,0.4,0.1,0.6c0,0,0,0.1,0,0.1c0,0,0,0,0,0c0.2,1,0.6,2,1.4,2.8c2,2,5.2,2,7.3,0c2-2,2-5.2,0.1-7.3
			c-0.8-0.8-1.9-1.3-3-1.5l0,0c-0.1,0-0.1,0-0.1,0c0,0-0.1,0-0.1,0c-2.6-0.3-5.1-1.4-7.1-3.4c-2.4-2.4-3.5-5.6-3.3-8.7
			c0-0.2,0.1-0.5,0.1-0.7c0-0.1,0-0.3,0-0.4c0-2.2-0.8-4.4-2.4-6c-3.2-3.3-8.5-3.3-11.8-0.1C19,5.6,19,10.9,22.2,14.2
			C23.9,15.9,26.2,16.8,28.4,16.7z"/>
		<path class="st0" d="M16.6,41.9c-0.1-3.1,1.1-6.2,3.5-8.6c2-2,4.5-3,7.1-3.3c0,0,0.1,0,0.1,0c0,0,0.1,0,0.1,0l0,0
			c1.1-0.1,2.1-0.6,3-1.4c2-2,2.1-5.2,0.1-7.3c-2-2-5.2-2.1-7.3-0.1C22.6,22,22.1,23,21.9,24c0,0,0,0,0,0c0,0,0,0.1,0,0.1
			c0,0.2,0,0.4-0.1,0.6c-0.3,2.5-1.5,4.9-3.4,6.8c-2.5,2.4-5.7,3.5-8.9,3.3c-0.2,0-0.4-0.1-0.6-0.1c-0.1,0-0.1,0-0.2,0c0,0,0,0,0,0
			c-2.2-0.1-4.5,0.7-6.2,2.4c-3.3,3.2-3.4,8.5-0.1,11.8s8.5,3.4,11.8,0.1c1.7-1.6,2.5-3.8,2.5-6c0-0.1,0-0.3,0-0.4
			C16.7,42.4,16.7,42.2,16.6,41.9z"/>
		<path class="st0" d="M43,54.5C43,54.5,43,54.5,43,54.5c-0.1,0-0.1,0-0.2,0c-0.2,0-0.4,0-0.6,0.1c-3.2,0.1-6.4-1-8.8-3.5
			c-1.9-1.9-3-4.4-3.3-6.9c0-0.2,0-0.4-0.1-0.6c0,0,0-0.1,0-0.1c0,0,0,0,0,0c-0.2-1-0.6-2-1.4-2.8c-2-2-5.2-2-7.3,0
			c-2,2-2,5.2-0.1,7.3c0.8,0.8,1.9,1.3,3,1.5l0,0c0.1,0,0.1,0,0.1,0c0,0,0.1,0,0.1,0c2.6,0.3,5.1,1.4,7.1,3.4
			c2.4,2.4,3.5,5.6,3.3,8.7c0,0.2-0.1,0.5-0.1,0.7c0,0.1,0,0.3,0,0.4c0,2.2,0.8,4.4,2.4,6c3.2,3.3,8.5,3.3,11.8,0.1
			c3.3-3.2,3.3-8.5,0.1-11.8C47.5,55.3,45.3,54.5,43,54.5z"/>
	</g>
	<g>
		<path class="st0" d="M93.4,54.8V16.4h6.6v17.5l14-17.5h7.7l-16.5,20.7l7.6-0.3l13.9,18h-7.9l-13.6-17.7l-5.2,6.5v11.3H93.4z"/>
		<path class="st0" d="M156.9,27.9h5.3l-5.3-11.5h6.9l17.6,38.5h-6.8l-2.5-5.4h-18.2l-2.5,5.4h-6.9L156.9,27.9z M169.3,43.3
			L163,29.7l-6.3,13.6H169.3z"/>
		<path class="st0" d="M201.5,27.9l6.6-5.3h-6.6v-6.2h13.4c2.9,0,5.2,0.6,7,1.8c1.8,1.2,3.2,2.6,4,4.4c0.8,1.7,1.1,3.6,0.9,5.5
			c-0.2,1.9-0.9,3.7-2.1,5.2c1.5,0.9,2.6,2.1,3.5,3.5c0.8,1.4,1.4,2.9,1.6,4.5c0.2,1.6,0.2,3.2-0.2,4.8c-0.4,1.6-1,3.1-2,4.4
			c-1,1.3-2.3,2.4-3.9,3.2c-1.6,0.8-3.5,1.2-5.7,1.2h-16.4V27.9z M208.1,22.5v9h6.9c1.7,0,3-0.5,3.8-1.5c0.9-0.9,1.3-2,1.3-3.1
			s-0.5-2.1-1.3-3c-0.9-0.9-2.2-1.4-3.9-1.4H208.1z M217.9,48.7c1.2,0,2.1-0.3,2.9-0.8c0.8-0.5,1.3-1.2,1.7-2
			c0.4-0.8,0.6-1.7,0.6-2.7c0-1-0.2-1.9-0.6-2.7c-0.4-0.8-1-1.5-1.7-2c-0.8-0.5-1.7-0.8-2.9-0.8h-9.8v11H217.9z"/>
		<path class="st0" d="M257.7,16.4v38.5h-6.6v-27l6.6-5.3h-6.6v-6.2H257.7z"/>
	</g>
</g>
</svg>
