<svg xmlns="http://www.w3.org/2000/svg" xmlns:xlink="http://www.w3.org/1999/xlink" width="237.146" height="75.88" viewBox="0 0 237.146 75.88">
  <defs>
    <linearGradient id="linear-gradient" x1="0.03" y1="1" x2="0.854" y2="0.226" gradientUnits="objectBoundingBox">
      <stop offset="0" stop-color="#a3c675"/>
      <stop offset="0.49" stop-color="#59aa66"/>
      <stop offset="1" stop-color="#155c73"/>
    </linearGradient>
    <linearGradient id="linear-gradient-2" x1="0" y1="0.5" x2="1" y2="0.5" xlink:href="#linear-gradient"/>
  </defs>
  <g id="Group_37266" data-name="Group 37266" transform="translate(-224 -66.545)">
    <g id="Group_2" data-name="Group 2" transform="translate(125.183 -28.027)">
      <path id="Path_1" data-name="Path 1" d="M150.581,134.974h-27a.823.823,0,0,0-.824.823v6.517a.824.824,0,0,0,.824.824l19.658-.006.012,13.8-.006.029H106.982l0-25.049h.276l-.006-.029,35.318.006a.823.823,0,0,0,.823-.824v-6.517a.823.823,0,0,0-.823-.824H106.977V120.7l19.67.005a.822.822,0,0,0,.823-.823v-6.518a.823.823,0,0,0-.823-.823H99.641a.824.824,0,0,0-.824.823l.006,50.935a.824.824,0,0,0,.824.823h50.928a.824.824,0,0,0,.824-.824v-7.364l.006-8.159V135.8A.824.824,0,0,0,150.581,134.974Z" fill="url(#linear-gradient)"/>
      <g id="Group_1" data-name="Group 1">
        <path id="Path_40676" data-name="Path 40676" d="M22.989-1.771a8.879,8.879,0,0,1-1.541.8,16.806,16.806,0,0,1-1.93.655A17.551,17.551,0,0,1,17.41.124a13.987,13.987,0,0,1-2.037.159,14.109,14.109,0,0,1-5.366-.974A12.1,12.1,0,0,1,5.915-3.383a11.789,11.789,0,0,1-2.6-4,13.319,13.319,0,0,1-.9-4.941A13.519,13.519,0,0,1,3.418-17.6,12.684,12.684,0,0,1,6.2-21.767a12.516,12.516,0,0,1,4.109-2.71,12.97,12.97,0,0,1,4.959-.956,13.674,13.674,0,0,1,3.737.5,13.012,13.012,0,0,1,3.17,1.346l-.638,1.559a10.238,10.238,0,0,0-1.842-.868,14.275,14.275,0,0,0-2.108-.584,11.081,11.081,0,0,0-2.143-.213,11.558,11.558,0,0,0-4.463.85A10.891,10.891,0,0,0,7.4-20.474,10.891,10.891,0,0,0,5.03-16.9a11.558,11.558,0,0,0-.85,4.463,11.622,11.622,0,0,0,.8,4.339A10.552,10.552,0,0,0,7.244-4.587a10.227,10.227,0,0,0,3.524,2.338,12.065,12.065,0,0,0,4.569.832,14.678,14.678,0,0,0,3.117-.354,9.731,9.731,0,0,0,2.8-1.027V-9.776H15.586v-1.665h7.4ZM29.4,0V-26.921H31.03v16.755l-.106-.6a6.126,6.126,0,0,1,2.285-2.462,6.585,6.585,0,0,1,3.631-1.01,4.373,4.373,0,0,1,3.153,1.151,4.069,4.069,0,0,1,1.24,2.993V0h-1.7V-9.635a3.3,3.3,0,0,0-.85-2.232,3.169,3.169,0,0,0-2.373-.921,5.014,5.014,0,0,0-2.586.708,5.447,5.447,0,0,0-1.93,1.913,5.178,5.178,0,0,0-.726,2.727V0ZM53.275.283a7.226,7.226,0,0,1-3.6-.9,6.652,6.652,0,0,1-2.55-2.533,7.458,7.458,0,0,1-.939-3.79,7.516,7.516,0,0,1,.992-3.95,6.576,6.576,0,0,1,2.692-2.515,8.372,8.372,0,0,1,3.861-.868,6.185,6.185,0,0,1,3.489,1.1,6.223,6.223,0,0,1,2.356,2.763l-.248.5.213-3.932h1.488V0H59.367V-4.286l.354.638a4.324,4.324,0,0,1-.85,1.4A7.468,7.468,0,0,1,57.4-.974a7.542,7.542,0,0,1-1.913.921A7.179,7.179,0,0,1,53.275.283Zm.354-1.417a6,6,0,0,0,2.816-.655,5.415,5.415,0,0,0,2.037-1.824,5.446,5.446,0,0,0,.886-2.692V-8.289a5.51,5.51,0,0,0-1.116-2.338,6.1,6.1,0,0,0-2.037-1.629,5.779,5.779,0,0,0-2.621-.6,5.822,5.822,0,0,0-2.869.726,5.493,5.493,0,0,0-2.09,2.037,5.917,5.917,0,0,0-.779,3.082,5.736,5.736,0,0,0,.779,2.958A5.959,5.959,0,0,0,50.742-1.93,5.51,5.51,0,0,0,53.629-1.134ZM67.337-13.85H69V0H67.337Zm-.354-5.1a1.057,1.057,0,0,1,.39-.832,1.274,1.274,0,0,1,.85-.337,1.191,1.191,0,0,1,.85.337,1.1,1.1,0,0,1,.354.832,1.144,1.144,0,0,1-.354.868,1.191,1.191,0,0,1-.85.337,1.24,1.24,0,0,1-.85-.354A1.109,1.109,0,0,1,66.983-18.951ZM81.045.283a7.226,7.226,0,0,1-3.6-.9A6.652,6.652,0,0,1,74.9-3.153a7.458,7.458,0,0,1-.939-3.79,7.516,7.516,0,0,1,.992-3.95,6.576,6.576,0,0,1,2.692-2.515,8.372,8.372,0,0,1,3.861-.868,6.185,6.185,0,0,1,3.489,1.1,6.223,6.223,0,0,1,2.356,2.763l-.248.5.213-3.932H88.8V0H87.138V-4.286l.354.638a4.324,4.324,0,0,1-.85,1.4,7.468,7.468,0,0,1-1.47,1.275,7.542,7.542,0,0,1-1.913.921A7.179,7.179,0,0,1,81.045.283ZM81.4-1.134a6,6,0,0,0,2.816-.655,5.415,5.415,0,0,0,2.037-1.824,5.445,5.445,0,0,0,.886-2.692V-8.289a5.51,5.51,0,0,0-1.116-2.338,6.1,6.1,0,0,0-2.037-1.629,5.779,5.779,0,0,0-2.621-.6,5.822,5.822,0,0,0-2.869.726,5.493,5.493,0,0,0-2.09,2.037,5.917,5.917,0,0,0-.779,3.082,5.736,5.736,0,0,0,.779,2.958A5.959,5.959,0,0,0,78.513-1.93,5.51,5.51,0,0,0,81.4-1.134ZM93.939-25.15H110.41v1.665h-7.4V0h-1.736V-23.485H93.939ZM117.53.283A7.542,7.542,0,0,1,113.7-.673a6.891,6.891,0,0,1-2.6-2.6,7.342,7.342,0,0,1-.939-3.7,7.063,7.063,0,0,1,.992-3.684,7.489,7.489,0,0,1,2.674-2.657,7.222,7.222,0,0,1,3.737-.992,6.146,6.146,0,0,1,4.162,1.452,8.139,8.139,0,0,1,2.426,3.79L112.04-4.392l-.5-1.2,11.087-4.321-.354.5a6.463,6.463,0,0,0-1.824-2.444,4.5,4.5,0,0,0-2.993-1.027,5.392,5.392,0,0,0-2.869.779,5.857,5.857,0,0,0-2.037,2.09,5.813,5.813,0,0,0-.762,2.975,6.023,6.023,0,0,0,.726,2.9,5.681,5.681,0,0,0,2.037,2.161,5.584,5.584,0,0,0,3.011.815,5.728,5.728,0,0,0,2.178-.425,7.094,7.094,0,0,0,1.86-1.1l.85,1.2a8.728,8.728,0,0,1-2.285,1.275A7.312,7.312,0,0,1,117.53.283Zm21.926-1.629a7.166,7.166,0,0,1-2.161,1.2,7.5,7.5,0,0,1-2.515.425,7.582,7.582,0,0,1-3.79-.939,6.93,6.93,0,0,1-2.621-2.568,7.209,7.209,0,0,1-.956-3.719,7.01,7.01,0,0,1,.992-3.719,7.24,7.24,0,0,1,2.639-2.568,7.137,7.137,0,0,1,3.6-.939,8.25,8.25,0,0,1,2.692.425,6.64,6.64,0,0,1,2.161,1.2l-.886,1.134a6.53,6.53,0,0,0-1.736-.992,5.76,5.76,0,0,0-2.125-.39,5.419,5.419,0,0,0-2.851.779A5.767,5.767,0,0,0,129.839-9.9a5.84,5.84,0,0,0-.762,2.958,5.772,5.772,0,0,0,.762,2.922,5.681,5.681,0,0,0,2.09,2.108,5.736,5.736,0,0,0,2.958.779,5.736,5.736,0,0,0,1.984-.337,6.289,6.289,0,0,0,1.665-.9ZM144.1,0V-26.921h1.629v16.755l-.106-.6A6.126,6.126,0,0,1,147.9-13.23a6.585,6.585,0,0,1,3.631-1.01,4.373,4.373,0,0,1,3.153,1.151,4.069,4.069,0,0,1,1.24,2.993V0h-1.7V-9.635a3.3,3.3,0,0,0-.85-2.232A3.169,3.169,0,0,0,151-12.787a5.014,5.014,0,0,0-2.586.708,5.447,5.447,0,0,0-1.93,1.913,5.178,5.178,0,0,0-.726,2.727V0Z" transform="translate(175.59 132.027)" fill="#fff"/>
        <path id="Path_40677" data-name="Path 40677" d="M26.152-4.429a2.033,2.033,0,0,0,.967,1.863,4.574,4.574,0,0,0,2.443.6h.211a2.252,2.252,0,0,1,1.055.193.714.714,0,0,1,.352.685q0,.808-.334.949A2.975,2.975,0,0,1,29.773,0a6.55,6.55,0,0,1-2.39-.387A3.2,3.2,0,0,1,25.8-1.758Q25.1,0,22.5,0H5.73A4.6,4.6,0,0,1,2.566-.879a3.937,3.937,0,0,1-.949-2.988v-7.7a.311.311,0,0,1,.352-.352H3.2a.311.311,0,0,1,.352.352v7.733a2.057,2.057,0,0,0,.4,1.441,1.709,1.709,0,0,0,1.283.422H22.5a1.811,1.811,0,0,0,1.318-.4,2.049,2.049,0,0,0,.4-1.459v-19.72a.311.311,0,0,1,.352-.352H25.8a.311.311,0,0,1,.352.352ZM14.271-14.9h.773a1.743,1.743,0,0,1,1.388.475,1.858,1.858,0,0,1,.4,1.248v1.617A2.114,2.114,0,0,1,16.4-10a2.323,2.323,0,0,1-1.564.4H11.073a.311.311,0,0,1-.352-.352v-.633a.311.311,0,0,1,.352-.352h3.761a.592.592,0,0,0,.51-.176,1,1,0,0,0,.123-.562v-.914q0-.633-.228-.808a1.185,1.185,0,0,0-.721-.176H12.549a.311.311,0,0,1-.352-.352v-.457a.575.575,0,0,1,.176-.422l2.777-3.3q.281-.352.562-.07l.527.492q.246.246-.035.527ZM29.738,0a1.218,1.218,0,0,1-.914-.246,1.173,1.173,0,0,1-.211-.773q0-.7.193-.826a2.134,2.134,0,0,1,.932-.123h3.55a2.69,2.69,0,0,1,1.055.158.671.671,0,0,1,.352.685,1.019,1.019,0,0,1-.334.9A1.944,1.944,0,0,1,33.288,0Zm3.445,0a1.218,1.218,0,0,1-.914-.246,1.173,1.173,0,0,1-.211-.773q0-.7.193-.826a2.134,2.134,0,0,1,.932-.123h3.55a2.69,2.69,0,0,1,1.055.158.671.671,0,0,1,.352.685,1.019,1.019,0,0,1-.334.9A1.944,1.944,0,0,1,36.733,0Zm3.445,0a1.218,1.218,0,0,1-.914-.246,1.173,1.173,0,0,1-.211-.773q0-.7.193-.826a2.134,2.134,0,0,1,.932-.123h3.55a2.69,2.69,0,0,1,1.055.158.671.671,0,0,1,.352.685,1.019,1.019,0,0,1-.334.9A1.944,1.944,0,0,1,40.178,0Zm3.445,0a1.218,1.218,0,0,1-.914-.246,1.173,1.173,0,0,1-.211-.773q0-.7.193-.826a2.134,2.134,0,0,1,.932-.123h3.55a2.69,2.69,0,0,1,1.055.158.671.671,0,0,1,.352.685,1.019,1.019,0,0,1-.334.9A1.944,1.944,0,0,1,43.623,0Zm3.445,0A1.218,1.218,0,0,1,42.6-.246a1.173,1.173,0,0,1-.211-.773q0-.7.193-.826a2.134,2.134,0,0,1,.932-.123h3.55a2.69,2.69,0,0,1,1.055.158.671.671,0,0,1,.352.685,1.019,1.019,0,0,1-.334.9A1.944,1.944,0,0,1,47.067,0Zm3.445,0a1.218,1.218,0,0,1-.914-.246,1.173,1.173,0,0,1-.211-.773q0-.7.193-.826a2.134,2.134,0,0,1,.932-.123h3.55a2.69,2.69,0,0,1,1.055.158.671.671,0,0,1,.352.685,1.019,1.019,0,0,1-.334.9A1.944,1.944,0,0,1,50.512,0Zm3.445,0a1.218,1.218,0,0,1-.914-.246,1.173,1.173,0,0,1-.211-.773q0-.7.193-.826a2.134,2.134,0,0,1,.932-.123h3.55a2.69,2.69,0,0,1,1.055.158.671.671,0,0,1,.352.685,1.019,1.019,0,0,1-.334.9A1.944,1.944,0,0,1,53.957,0Zm3.445,0a1.218,1.218,0,0,1-.914-.246,1.173,1.173,0,0,1-.211-.773q0-.7.193-.826a2.134,2.134,0,0,1,.932-.123H57.4a2.69,2.69,0,0,1,1.055.158.671.671,0,0,1,.352.685,1.019,1.019,0,0,1-.334.9A1.944,1.944,0,0,1,57.4,0ZM57.3,0a1.218,1.218,0,0,1-.914-.246,1.173,1.173,0,0,1-.211-.773q0-.7.193-.826a2.134,2.134,0,0,1,.932-.123h3.55A2.69,2.69,0,0,1,61.9-1.81a.671.671,0,0,1,.352.685,1.019,1.019,0,0,1-.334.9A1.944,1.944,0,0,1,60.847,0Zm3.445,0a1.218,1.218,0,0,1-.914-.246,1.173,1.173,0,0,1-.211-.773q0-.7.193-.826a2.134,2.134,0,0,1,.932-.123h3.55a2.69,2.69,0,0,1,1.055.158.671.671,0,0,1,.352.685,1.019,1.019,0,0,1-.334.9A1.944,1.944,0,0,1,64.291,0Zm9.948-4.6a2.258,2.258,0,0,0,.932,1.986,4.25,4.25,0,0,0,2.478.65h.211a2.252,2.252,0,0,1,1.055.193.784.784,0,0,1,.352.756.911.911,0,0,1-.316.791A1.932,1.932,0,0,1,74.31,0a8.44,8.44,0,0,1-2.531-.334,2.468,2.468,0,0,1-1.547-1.529A3.655,3.655,0,0,1,69.107-.51,3.445,3.445,0,0,1,67.068,0H64.221a1.839,1.839,0,0,1-.967-.193.836.836,0,0,1-.3-.756.961.961,0,0,1,.281-.808,1.7,1.7,0,0,1,.984-.211h2.636a2.6,2.6,0,0,0,1.055-.176,1.109,1.109,0,0,0,.562-.545,2.78,2.78,0,0,0,.228-.932q.053-.562.053-1.3v-8.893a.311.311,0,0,1,.352-.352h1.23a.311.311,0,0,1,.352.352Zm.246-13.006a.311.311,0,0,1-.352-.352v-2.109a.311.311,0,0,1,.352-.352h1.828a.311.311,0,0,1,.352.352v2.109a.311.311,0,0,1-.352.352Zm-4.5,0a.311.311,0,0,1-.352-.352v-2.109a.311.311,0,0,1,.352-.352h1.828a.311.311,0,0,1,.352.352v2.109a.311.311,0,0,1-.352.352ZM74.274,0a1.218,1.218,0,0,1-.914-.246,1.173,1.173,0,0,1-.211-.773q0-.7.193-.826a2.134,2.134,0,0,1,.932-.123h3.55a2.69,2.69,0,0,1,1.055.158.671.671,0,0,1,.352.685,1.019,1.019,0,0,1-.334.9A1.944,1.944,0,0,1,77.825,0Zm3.445,0a1.218,1.218,0,0,1-.914-.246,1.173,1.173,0,0,1-.211-.773q0-.7.193-.826a2.134,2.134,0,0,1,.932-.123h3.55a2.69,2.69,0,0,1,1.055.158.671.671,0,0,1,.352.685,1.019,1.019,0,0,1-.334.9A1.944,1.944,0,0,1,81.269,0Zm3.445,0a1.218,1.218,0,0,1-.914-.246,1.173,1.173,0,0,1-.211-.773q0-.7.193-.826a2.134,2.134,0,0,1,.932-.123h3.55a2.69,2.69,0,0,1,1.055.158.671.671,0,0,1,.352.685,1.019,1.019,0,0,1-.334.9A1.944,1.944,0,0,1,84.714,0Zm3.48,0a3,3,0,0,1-1.055-.141q-.352-.141-.352-.7,0-.7.334-.914a2.077,2.077,0,0,1,1.072-.211h2.531a1.755,1.755,0,0,0,1.283-.4,2.049,2.049,0,0,0,.4-1.459v-9.983a.311.311,0,0,1,.352-.352h1.265a.311.311,0,0,1,.352.352v9.385a4.972,4.972,0,0,1-.949,3.357A4.044,4.044,0,0,1,86.718,0ZM90.2,5.765a.311.311,0,0,1-.352-.352V3.3a.311.311,0,0,1,.352-.352h1.828a.311.311,0,0,1,.352.352V5.413a.311.311,0,0,1-.352.352Zm-4.5,0a.311.311,0,0,1-.352-.352V3.3a.311.311,0,0,1,.352-.352h1.828a.311.311,0,0,1,.352.352V5.413a.311.311,0,0,1-.352.352Zm10.51-29.316a.311.311,0,0,1,.352-.352h1.23a.311.311,0,0,1,.352.352v19.72A1.89,1.89,0,0,0,98.6-2.373a1.958,1.958,0,0,0,1.336.4h1.758q1.406,0,1.406.984,0,.7-.334.844A2.975,2.975,0,0,1,101.692,0h-1.371a4.537,4.537,0,0,1-3.164-.9,3.891,3.891,0,0,1-.949-2.935ZM101.657,0a1.218,1.218,0,0,1-.914-.246,1.173,1.173,0,0,1-.211-.773q0-.7.193-.826a2.134,2.134,0,0,1,.932-.123h3.55a2.69,2.69,0,0,1,1.055.158.671.671,0,0,1,.352.685,1.019,1.019,0,0,1-.334.9A1.944,1.944,0,0,1,105.207,0ZM105.1,0a1.218,1.218,0,0,1-.914-.246,1.173,1.173,0,0,1-.211-.773q0-.7.193-.826a2.134,2.134,0,0,1,.932-.123h3.55a2.69,2.69,0,0,1,1.055.158.671.671,0,0,1,.352.685,1.019,1.019,0,0,1-.334.9A1.944,1.944,0,0,1,108.652,0Zm3.445,0a1.218,1.218,0,0,1-.914-.246,1.173,1.173,0,0,1-.211-.773q0-.7.193-.826a2.134,2.134,0,0,1,.932-.123h3.55a2.69,2.69,0,0,1,1.055.158.671.671,0,0,1,.352.685,1.019,1.019,0,0,1-.334.9A1.944,1.944,0,0,1,112.1,0Zm3.445,0a1.218,1.218,0,0,1-.914-.246,1.173,1.173,0,0,1-.211-.773q0-.7.193-.826a2.134,2.134,0,0,1,.932-.123h3.55a2.69,2.69,0,0,1,1.055.158.671.671,0,0,1,.352.685,1.019,1.019,0,0,1-.334.9A1.944,1.944,0,0,1,115.542,0Zm3.445,0a1.218,1.218,0,0,1-.914-.246,1.173,1.173,0,0,1-.211-.773q0-.7.193-.826a2.134,2.134,0,0,1,.932-.123h3.55a2.69,2.69,0,0,1,1.055.158.671.671,0,0,1,.352.685,1.019,1.019,0,0,1-.334.9A1.944,1.944,0,0,1,118.987,0Zm3.445,0a1.218,1.218,0,0,1-.914-.246,1.173,1.173,0,0,1-.211-.773q0-.7.193-.826a2.134,2.134,0,0,1,.932-.123h3.55a2.69,2.69,0,0,1,1.055.158.671.671,0,0,1,.352.685,1.019,1.019,0,0,1-.334.9A1.944,1.944,0,0,1,122.431,0Zm3.445,0a1.218,1.218,0,0,1-.914-.246,1.173,1.173,0,0,1-.211-.773q0-.7.193-.826a2.134,2.134,0,0,1,.932-.123h3.55a2.69,2.69,0,0,1,1.055.158.671.671,0,0,1,.352.685,1.019,1.019,0,0,1-.334.9A1.944,1.944,0,0,1,125.876,0Zm3.445,0a1.218,1.218,0,0,1-.914-.246,1.173,1.173,0,0,1-.211-.773q0-.7.193-.826a2.134,2.134,0,0,1,.932-.123h3.55a2.69,2.69,0,0,1,1.055.158.671.671,0,0,1,.352.685,1.019,1.019,0,0,1-.334.9A1.944,1.944,0,0,1,129.321,0Zm3.445,0a1.218,1.218,0,0,1-.914-.246,1.173,1.173,0,0,1-.211-.773q0-.7.193-.826a2.134,2.134,0,0,1,.932-.123h3.55a2.69,2.69,0,0,1,1.055.158.671.671,0,0,1,.352.685,1.019,1.019,0,0,1-.334.9A1.944,1.944,0,0,1,132.766,0Zm3.445,0a1.218,1.218,0,0,1-.914-.246,1.173,1.173,0,0,1-.211-.773q0-.7.193-.826a2.134,2.134,0,0,1,.932-.123h3.55a2.69,2.69,0,0,1,1.055.158.671.671,0,0,1,.352.685,1.019,1.019,0,0,1-.334.9A1.944,1.944,0,0,1,136.211,0Zm3.445,0a1.218,1.218,0,0,1-.914-.246,1.173,1.173,0,0,1-.211-.773q0-.7.193-.826a2.134,2.134,0,0,1,.932-.123h3.55a2.69,2.69,0,0,1,1.055.158.671.671,0,0,1,.352.685,1.019,1.019,0,0,1-.334.9A1.944,1.944,0,0,1,139.656,0Zm3.445,0a1.218,1.218,0,0,1-.914-.246,1.173,1.173,0,0,1-.211-.773q0-.7.193-.826a2.134,2.134,0,0,1,.932-.123h3.55a2.69,2.69,0,0,1,1.055.158.671.671,0,0,1,.352.685,1.019,1.019,0,0,1-.334.9A1.944,1.944,0,0,1,143.1,0Zm5.835-7.628a11.274,11.274,0,0,1,.246-2.127,6.314,6.314,0,0,1,1-2.355,6.275,6.275,0,0,1,2.162-1.9,7.583,7.583,0,0,1,3.726-.791,7.15,7.15,0,0,1,3.392.738,6.808,6.808,0,0,1,2.3,1.968.325.325,0,0,1-.105.492l-1.055.773a.321.321,0,0,1-.492-.035,5,5,0,0,0-4.078-1.968,5.817,5.817,0,0,0-2.285.4,4.1,4.1,0,0,0-1.547,1.107,4.519,4.519,0,0,0-.879,1.617,6.661,6.661,0,0,0-.281,1.968,6.133,6.133,0,0,0,.492,2.6,6.258,6.258,0,0,0,1.16,1.74,5.067,5.067,0,0,0,1.336,1.019,4.941,4.941,0,0,0,.984.4h7.593a.311.311,0,0,1,.352.352V-.352a.311.311,0,0,1-.352.352H143.03a2.448,2.448,0,0,1-1.055-.176.743.743,0,0,1-.352-.738q0-.7.334-.879a2.431,2.431,0,0,1,1.072-.176h4.6a7.117,7.117,0,0,1-1.6-2.3A8.018,8.018,0,0,1,145.385-7.628Zm6.4-9.983a.311.311,0,0,1-.352-.352v-2.109a.311.311,0,0,1,.352-.352h1.406a.311.311,0,0,1,.352.352v2.109a.311.311,0,0,1-.352.352Z" transform="translate(176.553 164.687)" fill="#fff"/>
      </g>
    </g>
    <path id="Path_2" data-name="Path 2" d="M103.473,97.573a5.125,5.125,0,1,0,5.121,5.129A5.129,5.129,0,0,0,103.473,97.573Z" transform="translate(125.656 -31.028)" fill="url(#linear-gradient-2)"/>
  </g>
</svg>
