<svg xmlns="http://www.w3.org/2000/svg" xmlns:xlink="http://www.w3.org/1999/xlink" width="239.736" height="79.115" viewBox="0 0 239.736 79.115">
  <defs>
    <linearGradient id="linear-gradient" x1="0.03" y1="1" x2="0.854" y2="0.226" gradientUnits="objectBoundingBox">
      <stop offset="0" stop-color="#a3c675"/>
      <stop offset="0.49" stop-color="#59aa66"/>
      <stop offset="1" stop-color="#155c73"/>
    </linearGradient>
    <linearGradient id="linear-gradient-2" x1="0" y1="0.5" x2="1" y2="0.5" xlink:href="#linear-gradient"/>
  </defs>
  <g id="Group_37266" data-name="Group 37266" transform="translate(-224 -66.545)">
    <g id="Group_2" data-name="Group 2" transform="translate(125.183 -28.027)">
      <path id="Path_1" data-name="Path 1" d="M150.581,134.974h-27a.823.823,0,0,0-.824.823v6.517a.824.824,0,0,0,.824.824l19.658-.006.012,13.8-.006.029H106.982l0-25.049h.276l-.006-.029,35.318.006a.823.823,0,0,0,.823-.824v-6.517a.823.823,0,0,0-.823-.824H106.977V120.7l19.67.005a.822.822,0,0,0,.823-.823v-6.518a.823.823,0,0,0-.823-.823H99.641a.824.824,0,0,0-.824.823l.006,50.935a.824.824,0,0,0,.824.823h50.928a.824.824,0,0,0,.824-.824v-7.364l.006-8.159V135.8A.824.824,0,0,0,150.581,134.974Z" fill="url(#linear-gradient)"/>
      <g id="Group_1" data-name="Group 1">
        <text id="GhaiaTech" transform="translate(175.59 132.027)" fill="#fff" font-size="35.422" font-family="JosefinSans-Light, Josefin Sans" font-weight="300"><tspan x="0" y="0">GhaiaTech</tspan></text>
        <text id="غــــــــــــايـــتــــــــــك" transform="translate(176.553 164.687)" fill="#fff" font-size="35.151" font-family="DINNextLTArabic-Light, DIN Next LT Arabic" font-weight="300"><tspan x="0" y="0">غــــــــــــايـــتــــــــــك</tspan></text>
      </g>
    </g>
    <path id="Path_2" data-name="Path 2" d="M103.473,97.573a5.125,5.125,0,1,0,5.121,5.129A5.129,5.129,0,0,0,103.473,97.573Z" transform="translate(125.656 -31.028)" fill="url(#linear-gradient-2)"/>
  </g>
</svg>
